<?xml version="1.0" encoding="UTF-8"?><svg id="Layer_1" xmlns="http://www.w3.org/2000/svg" viewBox="0 0 189.03 94.18"><defs><style>.cls-1{fill:#333132;}</style></defs><path class="cls-1" d="m126.09,47.15c-1.49-2.22-3.28-3.98-5.38-5.3-2.1-1.32-4.45-2.2-7.05-2.64-2.6-.45-5.34-.35-8.21.27-2.75.6-5.19,1.67-7.33,3.21-2.14,1.54-3.9,3.37-5.27,5.51-1.37,2.14-2.31,4.51-2.8,7.13-.5,2.62-.46,5.27.13,7.96.63,2.92,1.7,5.48,3.19,7.66,1.48,2.19,3.27,3.94,5.36,5.26,2.1,1.32,4.45,2.2,7.05,2.64,2.61.45,5.34.35,8.21-.27,2.75-.6,5.19-1.67,7.33-3.21,2.15-1.54,3.9-3.37,5.27-5.51,1.37-2.14,2.31-4.5,2.82-7.09s.46-5.26-.13-8c-.63-2.86-1.69-5.4-3.18-7.62Zm-5.04,22.81c-1.34,2.74-3.66,4.47-7,5.19-2.16.47-4.13.28-5.92-.6-1.78-.87-3.35-2.11-4.71-3.74-1.37-1.63-2.53-3.54-3.5-5.71-.96-2.17-1.68-4.34-2.15-6.51-1.02-4.68-.81-8.29.63-10.83,1.43-2.54,3.7-4.16,6.8-4.83,2.28-.49,4.33-.27,6.16.68,1.83.95,3.44,2.3,4.83,4.04,1.4,1.75,2.57,3.76,3.52,6.03.95,2.28,1.66,4.49,2.13,6.65.81,3.68.54,6.89-.79,9.63Z"/><path class="cls-1" d="m57.88,29.34c1.44,0,2.63-.48,3.59-1.44.96-.96,1.44-2.21,1.44-3.77,0-1.44-.48-2.68-1.44-3.72-.96-1.05-2.15-1.57-3.59-1.57s-2.74.52-3.72,1.57c-.99,1.05-1.48,2.29-1.48,3.72,0,1.56.49,2.81,1.48,3.77.99.96,2.23,1.44,3.72,1.44Z"/><path class="cls-1" d="m90.8,75.89c-1.38-.24-2.62-.58-3.72-1.03-1.11-.45-1.66-1.15-1.66-2.11V24.75c0-1.79.09-3.36.27-4.71.18-1.35.27-2.53.27-3.54,0-.42-.09-.75-.27-.99-.18-.24-.54-.36-1.09-.36-.49,0-1.27.15-2.36.45-1.09.3-2.33.54-3.72.72-1.14.12-2.4.22-3.78.31-1.38.09-2.45.13-3.23.13-.12.48-.18.9-.18,1.26,0,.72.39,1.14,1.17,1.26,2.09.18,3.51.61,4.26,1.3.75.69,1.12,1.99,1.12,3.9v42c-1.03,9.08-10.98,8.78-10.98,8.78,0,0-4.81.38-5.25-4.02v-23.15c0-1.92.09-3.45.27-4.63.18-1.16.27-2.16.27-3.01,0-.9-.43-1.34-1.27-1.34-.48,0-1.28.13-2.36.4s-2.33.52-3.72.76c-.22.03-.44.05-.69.08-.78.09-1.71.16-2.78.23-1.41.09-2.5.13-3.27.13-.12.48-.18.87-.18,1.17,0,.72.39,1.13,1.16,1.25,2.1.18,3.45.66,4.08,1.44.63.78.95,2.06.95,3.86v18.06c-.03.48-.09.95-.2,1.41-.08.33-.18.63-.28.93-.06.18-.13.34-.19.51-.08.21-.17.41-.26.6-.03.05-.05.11-.08.16-.97,1.89-2.44,3.04-4.08,3.82-1.54.73-3.61,1.26-5.25,1.3-2.98.08-8.76.46-10.4-.4-.06-.03-.11-.05-.17-.08-.02-.01-.05-.02-.07-.03-.69-.33-.96-.61-.96-.61,0,0-.01-.02-.03-.06-.74-.65-1.22-1.51-1.3-2.46-.02-.06-.04-.11-.04-.13V26.63c0-.05,0-.1,0-.15v-6.91s-.05,0-.08,0c-1.43.04-2.82.06-4.15.06s-3.05-.04-5.03-.13c-1.97-.09-3.98-.19-6.01-.31-.12.6-.18,1.1-.18,1.52,0,.37.07.68.22.95s.37.43.67.49c2.39.36,4.01.79,4.84,1.3s1.26,1.37,1.26,2.56v45.75c0,1.07-.45,1.87-1.35,2.38-.9.51-2.57.97-5.02,1.39-.6.12-.9.6-.9,1.44,0,.26.03.59.1.98h40.01s0,0,0-.01h6.16,0s5.52.01,5.52.01h24.52c.06-.39.1-.72.1-.99,0-.6-.24-.96-.72-1.08Z"/><path class="cls-1" d="m172.67,74.81c-1.02-.06-1.84-.19-2.47-.4-.63-.21-1.12-.51-1.48-.9-.36-.39-.6-.9-.72-1.53-.12-.63-.18-1.45-.18-2.47v-29.16c0-.9-.42-1.35-1.27-1.35-.49,0-1.21.13-2.18.4-.97.27-2.12.49-3.45.67-.96.18-2.08.31-3.36.4-1.29.09-2.32.13-3.1.13-.12.48-.18.9-.18,1.26,0,.66.39,1.05,1.17,1.17,2.09.18,3.42.63,3.99,1.35.57.72.85,2.03.85,3.95v13.1c0,1.91-.33,3.59-.99,5.02-.66,1.44-1.54,2.65-2.65,3.63-1.11.99-2.38,1.74-3.81,2.24-1.44.51-2.9.76-4.4.76-1.38,0-2.51-.25-3.41-.76-.9-.51-1.59-1.23-2.06-2.15-.48-.93-.81-2.02-.99-3.27s-.27-2.63-.27-4.13v-22.43c0-.9-.42-1.35-1.26-1.35-.48,0-1.21.13-2.2.4-.99.27-2.14.49-3.45.67-.9.18-1.99.31-3.27.4-1.29.09-2.32.13-3.09.13-.12.48-.18.9-.18,1.26,0,.66.39,1.05,1.17,1.17,2.03.18,3.33.61,3.9,1.3.57.69.85,2.02.85,3.99v18.66c0,3.83.91,6.79,2.74,8.88,1.82,2.09,4.56,3.14,8.21,3.14,2.03,0,3.93-.43,5.7-1.3,1.76-.87,3.32-1.84,4.66-2.92,1.35-1.08,2.44-2.09,3.27-3.05.84-.96,1.35-1.53,1.53-1.7v7.89h13.42c.09-.6.13-1.67.13-1.97,0-.66-.39-1.05-1.17-1.17Z"/></svg>